<svg version="1.1" id="Layer_1" xmlns="http://www.w3.org/2000/svg" xmlns:xlink="http://www.w3.org/1999/xlink" x="0px" y="0px"
	 width="100%" viewBox="0 0 1280 499" enable-background="new 0 0 1280 499" xml:space="preserve">
<path fill="#FDFEFE" opacity="1.000000" stroke="none" 
	d="
M1281.000000,266.000000 
	C1281.000000,293.355347 1281.000000,320.710693 1280.664185,348.546082 
	C1279.885620,349.027283 1279.442749,349.028442 1278.553467,348.873474 
	C1145.868652,348.717346 1013.630310,348.717346 880.983154,348.717346 
	C880.983154,350.201111 880.983337,351.166473 880.983215,352.131836 
	C880.976562,398.454956 880.967712,444.778076 880.976868,491.101196 
	C880.977051,492.086029 881.182800,493.070801 881.343689,494.304138 
	C881.835938,494.454163 882.277161,494.355682 883.045349,494.462646 
	C884.703430,494.708252 886.034607,494.783539 887.365723,494.783569 
	C1016.268982,494.786865 1145.172241,494.786652 1274.075562,494.757721 
	C1275.705078,494.757355 1277.334595,494.386139 1279.303589,494.332825 
	C1280.095337,494.651733 1280.547729,494.825867 1281.000000,495.000000 
	C1281.000000,496.665436 1281.000000,498.330902 1281.000000,499.998169 
	C1085.644653,500.000000 890.289307,500.000000 694.558777,499.634338 
	C706.478210,497.249817 712.139709,488.410095 716.034546,477.862579 
	C726.715271,448.938629 737.344910,419.995789 747.956665,391.046448 
	C748.894043,388.489136 749.552856,385.829712 750.484131,382.743439 
	C743.786072,382.743439 737.800781,382.938293 731.836670,382.667053 
	C728.501282,382.515350 727.224365,383.871338 726.269287,386.879089 
	C721.350281,402.369568 716.240112,417.799713 711.121887,433.226105 
	C710.343018,435.573578 709.173645,437.791412 707.973206,440.556702 
	C701.849243,421.963684 696.037415,404.180878 690.067078,386.451416 
	C689.588013,385.028870 688.066772,382.967529 686.946350,382.912872 
	C680.164917,382.581696 673.359253,382.747955 666.035217,382.747955 
	C666.720520,385.028412 667.144287,386.788757 667.771545,388.473267 
	C676.901428,412.990479 686.071594,437.492676 695.202515,462.009521 
	C698.683350,471.355774 690.812317,482.875305 680.829712,482.941406 
	C677.623108,482.962646 674.413086,482.485016 671.177917,482.233551 
	C671.502747,486.342682 671.753174,490.101837 672.114624,493.850281 
	C672.313232,495.909485 672.698792,497.950684 673.000000,500.000000 
	C649.311340,500.000000 625.622620,500.000000 601.629883,499.638733 
	C611.013367,498.406189 618.281433,494.022125 622.180725,484.822571 
	C624.377014,479.640808 626.659241,474.487061 628.621582,469.216034 
	C636.138367,449.024109 643.566223,428.798920 650.974731,408.566925 
	C654.037231,400.203522 656.966919,391.791443 660.197083,382.727783 
	C652.698914,382.727783 645.904907,382.585693 639.128967,382.871552 
	C638.034363,382.917725 636.481262,384.685852 636.051208,385.964478 
	C631.450806,399.641113 627.052429,413.385559 622.555847,427.097382 
	C621.128113,431.451050 619.572571,435.762726 617.667542,441.273590 
	C616.663513,438.461884 616.078918,436.938202 615.572327,435.389008 
	C610.322754,419.335846 605.132751,403.262848 599.775391,387.245758 
	C599.220276,385.586090 597.763855,383.035217 596.603516,382.966736 
	C589.734253,382.561188 582.828857,382.766693 575.569031,382.766693 
	C575.997620,384.401276 576.163696,385.364746 576.498962,386.265259 
	C585.903076,411.523438 595.351257,436.765228 604.728516,462.033325 
	C608.140747,471.227936 600.073242,482.908905 590.283447,482.953674 
	C587.115723,482.968170 583.945923,482.548340 580.733459,482.324097 
	C581.176208,488.502655 581.588074,494.251312 582.000000,500.000000 
	C388.385040,500.000000 194.770096,500.000000 1.077572,500.000000 
	C1.077572,333.762817 1.077572,167.525604 1.077572,1.000000 
	C182.688583,1.000000 364.377319,1.000000 546.644348,1.301588 
	C547.401794,1.983595 547.580872,2.364015 547.558228,3.190155 
	C547.295776,5.797420 547.182007,7.958957 547.181763,10.120508 
	C547.171814,90.904121 547.170166,171.687744 547.179138,252.471359 
	C547.179565,255.964325 547.290955,259.457306 547.242310,263.349731 
	C548.011902,264.299744 548.888245,265.327667 549.768250,265.330872 
	C570.408020,265.405304 591.048157,265.356537 611.688232,265.355499 
	C693.154541,265.351410 774.620850,265.356598 856.087158,265.356873 
	C890.885864,265.356995 925.687378,265.118805 960.481262,265.527954 
	C968.505737,265.622284 974.055054,262.484985 979.011536,257.004639 
	C979.000000,256.998322 979.009888,257.022308 979.307495,256.961365 
	C980.086304,256.280151 980.567505,255.659836 981.025635,255.018890 
	C981.002563,254.998276 981.037476,255.048721 981.418945,255.034973 
	C982.857422,255.535706 984.018005,255.908417 984.952515,256.590759 
	C987.939270,258.771820 990.842163,261.067688 993.896484,263.283997 
	C994.015503,263.248749 993.770935,263.288147 994.030518,263.538818 
	C996.682495,264.313812 999.073303,265.286316 1001.467468,265.294403 
	C1031.932129,265.397217 1062.397217,265.359985 1092.862183,265.361664 
	C1123.685913,265.363373 1154.509644,265.368713 1185.333374,265.372406 
	C1187.475098,265.372650 1189.616821,265.372467 1191.956909,265.372467 
	C1192.054443,263.597870 1192.189209,262.288483 1192.189331,260.979095 
	C1192.200439,176.005325 1192.207397,91.031555 1192.151367,6.057810 
	C1192.150269,4.371617 1191.400513,2.685917 1191.000000,0.999993 
	C1201.355347,1.000000 1211.710693,1.000000 1222.263184,1.222877 
	C1222.552246,1.660164 1222.644287,1.874573 1222.715942,2.422943 
	C1222.812988,3.185664 1222.930542,3.614425 1222.940552,4.496617 
	C1222.833130,91.785736 1222.833130,178.621429 1222.833130,265.239197 
	C1239.451660,265.239197 1255.430908,265.210785 1271.409790,265.265991 
	C1274.213867,265.275696 1277.016479,265.636230 1280.112305,265.894470 
	C1280.603149,265.969452 1280.801636,265.984711 1281.000000,266.000000 
M273.500000,223.097900 
	C258.420685,223.097900 243.341400,223.097900 227.651840,223.097900 
	C227.651840,177.620422 227.651840,132.900330 227.651840,87.373184 
	C216.921661,88.222290 206.874939,89.090721 196.816925,89.798958 
	C170.352081,91.662491 145.416565,99.001488 121.401299,110.096268 
	C88.252640,125.410583 62.781345,149.390213 42.665939,179.356186 
	C30.149704,198.001633 21.709255,218.535004 17.221703,240.548111 
	C15.596592,248.519882 15.061423,256.713837 13.977835,265.206787 
	C34.220112,265.206787 53.460224,265.206787 73.009178,265.206787 
	C84.835297,209.784744 115.115578,169.185425 168.792755,146.169922 
	C168.792755,186.544510 168.792755,225.742264 168.792755,265.255432 
	C243.257980,265.255432 317.402496,265.255432 391.714783,265.255432 
	C391.714783,206.224548 391.714783,147.700043 391.714783,89.312439 
	C372.502167,89.312439 353.631317,89.312439 334.572083,89.312439 
	C334.572083,133.986176 334.572083,178.260544 334.572083,223.098450 
	C314.381012,223.098450 294.440521,223.098450 273.500000,223.097900 
M512.241516,246.515762 
	C512.241516,194.141434 512.241516,141.767090 512.241516,89.149132 
	C492.734100,89.149132 474.657715,89.149132 456.832275,89.149132 
	C456.832275,91.371750 456.832397,93.339043 456.832275,95.306335 
	C456.829041,141.771744 456.957794,188.237900 456.688965,234.701767 
	C456.645477,242.215347 455.578400,249.913269 453.676575,257.183838 
	C450.335907,269.954834 442.894928,279.619171 429.295044,282.835205 
	C423.561554,284.191010 417.653748,284.809937 411.370972,285.838165 
	C411.370972,300.794861 411.370972,316.170471 411.370972,332.735016 
	C424.135040,331.469452 436.733582,331.029053 449.015472,328.824524 
	C470.734741,324.926056 488.872101,314.679535 500.677979,295.254395 
	C509.582825,280.602570 511.864197,264.253601 512.241516,246.515762 
M56.368378,397.684509 
	C51.046329,411.798370 45.720627,425.910828 40.403603,440.026581 
	C37.201881,448.526642 34.013683,457.031769 30.636423,466.021698 
	C38.585167,466.021698 45.895504,466.170685 53.188118,465.877899 
	C54.431866,465.827942 56.185417,464.115387 56.705566,462.781677 
	C59.635410,455.269592 62.260281,447.638550 65.004417,440.005554 
	C79.035500,440.005554 92.687302,440.082550 106.336922,439.944275 
	C109.270401,439.914551 110.385864,441.238068 111.277145,443.731720 
	C113.616234,450.276001 116.067474,456.788422 118.779312,463.184082 
	C119.307411,464.429535 121.186874,465.846588 122.490616,465.894714 
	C129.636246,466.158508 136.796722,466.020477 144.433807,466.020477 
	C143.750153,464.201904 143.213074,462.709381 142.630936,461.234680 
	C137.833191,449.080444 133.022629,436.931335 128.224472,424.777283 
	C119.040161,401.512787 109.887955,378.235535 100.616737,355.005737 
	C100.041267,353.563873 98.589317,351.451508 97.476471,351.407990 
	C89.520088,351.096893 81.545883,351.241852 73.446495,351.241852 
	C67.755608,366.773376 62.223660,381.871094 56.368378,397.684509 
M309.908295,465.701477 
	C323.522217,470.903320 334.963684,466.972687 345.403931,456.052826 
	C345.403931,470.756744 345.403931,484.176483 345.403931,497.755737 
	C353.103760,497.755737 360.444061,497.755737 367.767883,497.755737 
	C367.767883,459.291901 367.767883,421.227570 367.767883,382.739960 
	C364.273224,382.739960 360.975616,382.739960 357.678009,382.739960 
	C354.244110,382.739960 350.810242,382.739960 346.842407,382.739960 
	C346.842407,386.751923 346.842407,390.100250 346.842407,393.206604 
	C343.414764,390.250641 340.526642,386.954834 336.947906,384.812927 
	C321.438049,375.530151 298.502380,382.781097 290.980316,402.127106 
	C286.126678,414.610199 285.630463,427.302765 289.128845,439.979340 
	C292.186188,451.057861 297.527832,460.841827 309.908295,465.701477 
M763.678711,401.957642 
	C763.351746,403.163361 763.024841,404.369110 762.646606,405.764038 
	C768.479492,406.764313 773.955872,407.859558 779.484253,408.520935 
	C780.601379,408.654541 782.502625,407.438446 783.044617,406.348511 
	C787.169495,398.053345 798.076660,394.830597 805.906128,399.940552 
	C809.473755,402.268951 810.227356,405.947205 810.051880,409.993286 
	C809.875610,414.057861 806.504761,413.362122 804.203003,413.961609 
	C794.625793,416.456085 784.879944,418.368774 775.424866,421.247040 
	C766.121582,424.079102 760.284241,432.588043 759.934814,441.719116 
	C759.165222,461.830719 776.259338,470.424652 792.686340,467.320496 
	C799.690063,465.997009 806.134949,461.716034 813.088379,458.667389 
	C813.210205,459.102966 813.699463,460.457397 813.957336,461.854553 
	C814.521790,464.911896 815.976135,466.279846 819.370178,466.106079 
	C825.318298,465.801605 831.293274,466.021118 837.877319,466.021118 
	C832.649475,456.696503 832.482422,446.939514 832.597839,437.104156 
	C832.713196,427.273804 833.009644,417.424469 832.563782,407.613556 
	C831.882080,392.613892 827.861816,384.538910 810.202087,381.927368 
	C805.137878,381.178467 799.946533,380.945648 794.821289,381.019012 
	C780.318481,381.226593 769.183472,386.829254 763.678711,401.957642 
M454.390869,466.021576 
	C457.040375,466.021576 459.689880,466.021576 461.914581,466.021576 
	C460.690613,460.789062 459.082642,455.725067 458.409760,450.539795 
	C457.708710,445.137573 457.797089,439.619415 457.742065,434.149963 
	C457.653320,425.325653 458.045593,416.486023 457.665253,407.677490 
	C457.040283,393.201965 453.344971,385.021057 437.869843,382.504425 
	C428.893433,381.044617 419.411987,381.350494 410.313080,382.319641 
	C398.681610,383.558563 389.944061,393.941071 388.124207,405.831482 
	C393.771729,406.804016 399.409424,407.879089 405.088715,408.646667 
	C405.996979,408.769409 407.557495,407.758698 408.027405,406.859558 
	C412.645264,398.024139 421.097198,395.054108 430.037384,399.420532 
	C434.395050,401.548767 435.188904,405.488312 435.095398,409.912476 
	C435.008820,414.006317 431.647278,413.369263 429.368469,413.962860 
	C420.102936,416.376495 410.624115,418.094910 401.549591,421.064606 
	C397.219940,422.481537 392.767365,425.416962 389.862610,428.906586 
	C383.453156,436.606476 383.313049,445.880493 387.464691,454.580017 
	C391.856293,463.782196 400.398895,467.282104 410.203278,467.879852 
	C420.887024,468.531219 429.726562,464.134369 437.643585,457.331573 
	C440.984192,466.021606 440.984192,466.021637 450.429413,466.021637 
	C451.428497,466.021637 452.427612,466.021606 454.390869,466.021576 
M268.252502,420.500214 
	C268.261871,416.005707 268.352448,411.509674 268.265869,407.016998 
	C267.963654,391.331726 261.427155,383.885345 245.882599,381.915833 
	C240.473175,381.230408 234.939514,380.698151 229.523712,381.046387 
	C213.790329,382.057983 203.379486,387.364166 198.564590,405.787201 
	C204.241180,406.739532 209.881729,407.811951 215.567444,408.523499 
	C216.593353,408.651917 218.327316,407.571869 218.848801,406.582855 
	C223.344620,398.056213 232.567703,394.930603 241.077820,399.543030 
	C244.943100,401.638000 246.041962,405.433258 245.963196,409.716064 
	C245.883240,414.063629 242.316467,413.377319 239.880417,414.011353 
	C230.464050,416.462219 220.882263,418.333984 211.573517,421.126251 
	C201.965240,424.008392 196.059219,432.512543 195.684601,441.834625 
	C194.896164,461.454163 211.840942,470.582825 228.540863,467.271057 
	C235.550171,465.881012 242.006195,461.700928 248.905991,458.705811 
	C249.207535,459.776459 249.486862,461.762970 250.344986,463.456116 
	C250.892883,464.537201 252.273590,465.877106 253.321426,465.912872 
	C259.877869,466.136627 266.445740,466.025909 272.968445,466.025909 
	C271.596985,461.304901 269.602295,457.124207 269.287384,452.820618 
	C268.525696,442.410980 268.547546,431.944031 268.252502,420.500214 
M388.557526,306.500916 
	C388.557526,300.394867 388.557526,294.288818 388.557526,288.217499 
	C368.767883,288.217499 349.599884,288.217499 330.328156,288.217499 
	C330.328156,304.203217 330.328156,319.769348 330.328156,334.847595 
	C349.781036,334.847595 368.984192,334.847595 388.557007,334.847595 
	C388.557007,325.410919 388.557007,316.455811 388.557526,306.500916 
M196.499893,56.660202 
	C204.766052,56.660202 213.032211,56.660202 221.561676,56.660202 
	C221.561676,40.925556 221.561676,25.716743 221.561676,10.297652 
	C202.011414,10.297652 182.675995,10.297652 163.622635,10.297652 
	C163.622635,25.973776 163.622635,41.316631 163.622635,56.660042 
	C174.554077,56.660042 185.026978,56.660042 196.499893,56.660202 
M139.080597,11.721135 
	C137.618149,11.139435 136.160324,10.066352 134.692551,10.052568 
	C121.051575,9.924478 107.408897,9.978772 93.766708,9.979928 
	C89.336502,9.980303 84.906288,9.979986 81.070618,9.979986 
	C81.070618,25.908522 81.070618,41.288273 81.070618,56.422997 
	C100.703888,56.422997 119.751854,56.422997 139.073044,56.422997 
	C139.073044,41.607407 139.073044,27.146368 139.080597,11.721135 
M179.632141,454.470520 
	C179.632141,420.239319 179.632141,386.008087 179.632141,351.490753 
	C171.890289,351.490753 164.682983,351.490753 157.319763,351.490753 
	C157.319763,389.747406 157.319763,427.736267 157.319763,466.021851 
	C161.262619,466.021851 164.899384,466.021820 168.536148,466.021820 
	C172.126907,466.021820 175.717667,466.021851 179.633102,466.021851 
	C179.633102,462.060486 179.633102,458.759399 179.632141,454.470520 
M501.619934,438.502502 
	C501.898926,431.375977 501.932587,424.229492 502.510986,417.127350 
	C503.531464,404.596802 511.170898,398.251038 521.182495,401.315765 
	C523.187988,401.929657 525.107544,402.824219 527.260864,403.665222 
	C529.194397,397.227997 531.028625,391.121246 532.907959,384.864349 
	C526.785828,381.723297 520.403015,379.201843 514.415100,381.492554 
	C508.985046,383.569824 504.533234,388.204041 499.698761,391.675995 
	C499.698761,389.290009 499.698761,386.194214 499.698761,382.919586 
	C492.708588,382.919586 486.116425,382.919586 479.315002,382.919586 
	C479.315002,410.639374 479.315002,438.163208 479.315002,465.709290 
	C486.830688,465.709290 494.049652,465.709290 501.619965,465.709290 
	C501.619965,456.762695 501.619965,448.132233 501.619934,438.502502 
M564.245361,416.500153 
	C564.245361,405.404297 564.245361,394.308472 564.245361,383.086426 
	C556.569092,383.086426 549.388000,383.086426 542.174194,383.086426 
	C542.174194,410.829590 542.174194,438.208160 542.174194,465.704590 
	C549.619324,465.704590 556.833801,465.704590 564.244202,465.704590 
	C564.244202,449.419189 564.244202,433.459686 564.245361,416.500153 
M541.949036,366.382904 
	C542.012024,367.816162 542.075073,369.249390 542.138916,370.700897 
	C549.684692,370.700897 556.876526,370.700897 563.962708,370.700897 
	C563.962708,364.146240 563.962708,357.921997 563.962708,351.614075 
	C556.494995,351.614075 549.335022,351.614075 541.949097,351.614075 
	C541.949097,356.476135 541.949097,360.940826 541.949036,366.382904 
M247.813217,326.420624 
	C247.813217,329.376953 247.813217,332.333282 247.813217,334.999603 
	C267.410004,334.999603 286.478180,334.999603 305.674072,334.999603 
	C305.674072,319.087463 305.674072,303.547668 305.674072,288.161163 
	C286.227631,288.161163 267.154022,288.161163 247.813400,288.161163 
	C247.813400,300.826294 247.813400,313.135223 247.813217,326.420624 
z"/>
<path fill="#023FB0" opacity="1.000000" stroke="none" 
	d="
M547.350708,262.950256 
	C547.290955,259.457306 547.179565,255.964325 547.179138,252.471359 
	C547.170166,171.687744 547.171814,90.904121 547.181763,10.120508 
	C547.182007,7.958957 547.295776,5.797420 547.674805,2.998495 
	C547.995361,1.907409 547.997681,1.453704 548.000000,1.000000 
	C565.687561,1.000000 583.375122,1.000000 601.536499,1.468647 
	C602.017395,73.335274 602.016479,144.733246 602.067810,216.131195 
	C602.069458,218.417679 602.290466,220.803238 602.972839,222.964676 
	C603.810852,225.619110 605.411804,226.066330 607.354797,223.241333 
	C608.126648,223.196213 608.573120,223.246735 609.108765,223.442017 
	C609.463989,223.483704 609.729980,223.380630 610.458557,223.198090 
	C632.281372,223.173950 653.641602,223.229248 675.095459,223.428635 
	C675.459534,223.472458 675.729919,223.372208 676.413025,223.194519 
	C678.220703,223.162079 679.615784,223.207077 681.233643,223.485260 
	C682.973450,223.577072 684.490356,223.435699 686.370117,223.194183 
	C686.982971,223.073563 687.233032,223.053085 687.760742,222.962585 
	C688.309875,218.477081 684.948730,217.940918 681.904907,217.073029 
	C681.946411,217.035843 681.918457,217.143814 681.836670,216.887070 
	C681.459229,216.443680 681.163635,216.257034 680.916992,216.059662 
	C680.965942,216.048950 680.904968,216.128555 680.911682,215.765854 
	C678.536804,213.304428 676.155212,211.205688 673.464783,208.970337 
	C659.341003,191.908493 653.100464,172.904602 656.790710,150.964020 
	C659.597717,134.274963 668.025330,120.798012 680.833008,110.380013 
	C700.217651,94.612144 723.588074,89.663605 747.798462,89.070381 
	C775.278381,88.397041 802.787415,88.913261 830.283813,88.912346 
	C831.858582,88.912300 833.433411,88.912346 835.308105,88.912346 
	C835.308105,133.998001 835.308105,178.277527 835.308105,222.702774 
	C871.605225,222.702774 907.593933,222.702774 943.984680,222.702774 
	C936.204407,186.563568 911.633789,164.320160 882.795532,145.475388 
	C883.854614,143.241928 884.675659,141.426025 885.566528,139.645050 
	C893.980957,122.823723 902.564819,106.084076 910.711121,89.134079 
	C912.575134,85.255638 914.562622,83.837914 918.855347,84.134445 
	C931.263123,84.991577 943.697571,85.515495 956.128967,85.965103 
	C976.862976,86.715012 997.607544,87.931282 1018.338806,87.775146 
	C1036.588013,87.637703 1051.759888,93.768997 1063.902588,106.905830 
	C1072.111816,115.787216 1078.103271,125.777199 1076.691406,139.051102 
	C1074.164429,162.808228 1065.607544,184.352188 1053.996460,204.856033 
	C1050.478882,211.067490 1046.060913,216.769028 1042.052002,222.703979 
	C1072.916870,222.703781 1103.785278,222.703781 1134.769531,222.703781 
	C1134.834106,221.477570 1134.914673,220.660141 1134.914673,219.842712 
	C1134.917480,149.019409 1134.922119,78.196091 1134.873169,7.372802 
	C1134.871704,5.248331 1134.303833,3.124252 1134.000000,0.999995 
	C1152.354248,1.000000 1170.708496,1.000000 1189.523438,1.428417 
	C1190.324341,5.312861 1190.953369,8.768301 1190.960449,12.225003 
	C1191.034180,48.380375 1191.009399,84.535950 1191.009399,120.691467 
	C1191.009399,166.510666 1190.984985,212.329910 1191.047729,258.149017 
	C1191.052734,261.773956 1190.705933,264.121826 1186.052246,264.096344 
	C1121.958984,263.744995 1057.864868,263.533752 993.770935,263.288147 
	C993.770935,263.288147 994.015503,263.248749 993.856934,262.935303 
	C990.828613,259.695709 988.082458,256.625092 984.979187,253.972046 
	C984.397339,253.474625 982.388062,254.646927 981.037476,255.048706 
	C981.037476,255.048721 981.002563,254.998276 980.695068,255.030029 
	C979.928345,255.715286 979.469116,256.368805 979.009888,257.022308 
	C979.009888,257.022308 979.000000,256.998322 978.646240,257.025269 
	C976.281067,258.135071 974.334778,259.370270 972.243042,260.265259 
	C969.031494,261.639404 965.721313,263.859283 962.450500,263.863647 
	C826.357361,264.044830 690.263855,264.023834 554.170471,263.973969 
	C551.897095,263.973145 549.623962,263.306305 547.350708,262.950256 
M775.023254,186.500000 
	C775.023254,170.099899 775.023254,153.699783 775.023254,136.558914 
	C767.830688,136.558914 761.357849,136.122955 754.972107,136.681702 
	C748.607666,137.238617 742.186035,138.279831 736.042542,140.008026 
	C718.748901,144.872864 712.717041,159.012344 720.521057,175.119370 
	C729.085510,192.795975 742.710510,205.462570 759.610962,214.880264 
	C764.414551,217.557083 769.453979,219.810745 775.023254,222.575150 
	C775.023254,210.122559 775.023254,198.811279 775.023254,186.500000 
M1007.912659,170.203720 
	C1008.629822,164.818222 1009.889160,159.438766 1009.949341,154.045944 
	C1010.068665,143.353073 1004.716187,136.220413 994.569702,133.104950 
	C990.176331,131.755981 985.558655,130.694122 980.992249,130.450684 
	C973.005493,130.024918 964.979675,130.331970 956.970276,130.331970 
	C956.737549,130.738739 956.504883,131.145508 956.272156,131.552292 
	C974.796509,147.626801 987.089111,167.858124 995.713074,190.536591 
	C996.203430,190.535156 996.693787,190.533737 997.184143,190.532303 
	C1000.650513,183.999374 1004.116943,177.466446 1007.912659,170.203720 
z"/>
<path fill="#FDFEFF" opacity="1.000000" stroke="none" 
	d="
M687.483032,223.032608 
	C687.233032,223.053085 686.982971,223.073563 685.968018,223.071289 
	C683.805786,223.116394 682.408264,223.184235 681.010803,223.252075 
	C679.615784,223.207077 678.220703,223.162079 676.162231,223.113098 
	C675.333130,223.167572 675.167480,223.226059 675.001770,223.284561 
	C653.641602,223.229248 632.281372,223.173950 610.212524,223.109665 
	C609.342468,223.166199 609.180969,223.231720 609.019531,223.297241 
	C608.573120,223.246735 608.126648,223.196213 606.933472,223.115112 
	C605.448608,221.588104 604.067017,220.092514 604.065002,218.595078 
	C603.968445,146.063477 603.990906,73.531731 604.000000,1.000000 
	C780.354248,1.000000 956.708496,1.000000 1133.531494,0.999995 
	C1134.303833,3.124252 1134.871704,5.248331 1134.873169,7.372802 
	C1134.922119,78.196091 1134.917480,149.019409 1134.914673,219.842712 
	C1134.914673,220.660141 1134.834106,221.477570 1134.769531,222.703781 
	C1103.785278,222.703781 1072.916870,222.703781 1042.052002,222.703979 
	C1046.060913,216.769028 1050.478882,211.067490 1053.996460,204.856033 
	C1065.607544,184.352188 1074.164429,162.808228 1076.691406,139.051102 
	C1078.103271,125.777199 1072.111816,115.787216 1063.902588,106.905830 
	C1051.759888,93.768997 1036.588013,87.637703 1018.338806,87.775146 
	C997.607544,87.931282 976.862976,86.715012 956.128967,85.965103 
	C943.697571,85.515495 931.263123,84.991577 918.855347,84.134445 
	C914.562622,83.837914 912.575134,85.255638 910.711121,89.134079 
	C902.564819,106.084076 893.980957,122.823723 885.566528,139.645050 
	C884.675659,141.426025 883.854614,143.241928 882.795532,145.475388 
	C911.633789,164.320160 936.204407,186.563568 943.984680,222.702774 
	C907.593933,222.702774 871.605225,222.702774 835.308105,222.702774 
	C835.308105,178.277527 835.308105,133.998001 835.308105,88.912346 
	C833.433411,88.912346 831.858582,88.912300 830.283813,88.912346 
	C802.787415,88.913261 775.278381,88.397041 747.798462,89.070381 
	C723.588074,89.663605 700.217651,94.612144 680.833008,110.380013 
	C668.025330,120.798012 659.597717,134.274963 656.790710,150.964020 
	C653.100464,172.904602 659.341003,191.908493 673.601685,209.277466 
	C676.333252,211.856979 678.619141,213.992767 680.904968,216.128555 
	C680.904968,216.128555 680.965942,216.048950 680.970947,216.337524 
	C681.290161,216.798660 681.604309,216.971237 681.918457,217.143814 
	C681.918457,217.143814 681.946411,217.035843 682.045105,217.376373 
	C683.923523,219.488815 685.703308,221.260712 687.483032,223.032608 
M733.498169,9.977102 
	C719.541443,9.977102 705.584717,9.977102 692.036560,9.977102 
	C692.036560,25.824753 692.036560,41.200912 692.036560,56.400475 
	C711.631775,56.400475 730.700256,56.400475 749.720947,56.400475 
	C749.720947,40.791504 749.720947,25.538418 749.720947,9.976995 
	C744.437378,9.976995 739.466980,9.976995 733.498169,9.977102 
M823.341919,9.974379 
	C805.061157,9.974379 786.780334,9.974379 768.992371,9.974379 
	C768.992371,25.746170 768.992371,41.118076 768.992371,56.464462 
	C788.532410,56.464462 807.581543,56.464462 827.086060,56.464462 
	C827.086060,41.556190 827.129822,26.951977 826.967651,12.350063 
	C826.958801,11.549580 825.235352,10.768134 823.341919,9.974379 
z"/>
<path fill="#0440B1" opacity="1.000000" stroke="none" 
	d="
M1281.000000,494.531372 
	C1280.547729,494.825867 1280.095337,494.651733 1279.116455,494.024353 
	C1276.639038,493.381622 1274.688477,493.026733 1272.737793,493.026337 
	C1144.628540,493.000946 1016.519226,493.004395 888.409973,493.004059 
	C882.008850,493.004028 882.003174,492.998596 882.003296,486.448883 
	C882.004395,441.302460 882.008057,396.156006 882.478516,351.004639 
	C1012.893555,350.999115 1142.841064,351.003052 1272.788574,350.957550 
	C1274.853516,350.956818 1276.918091,350.349274 1278.991211,349.776123 
	C1278.999390,349.527344 1279.000000,349.029572 1279.000000,349.029572 
	C1279.442749,349.028442 1279.885620,349.027283 1280.664185,349.013062 
	C1281.000000,397.354218 1281.000000,445.708466 1281.000000,494.531372 
M1178.389404,409.581360 
	C1178.264893,427.408173 1178.126953,445.234955 1178.071655,463.061981 
	C1178.069824,463.680542 1178.893066,464.301666 1180.008179,465.570374 
	C1187.244751,465.570374 1194.481201,465.570374 1202.016113,465.570374 
	C1202.016113,450.483490 1201.696899,435.670074 1202.186279,420.883453 
	C1202.361694,415.584381 1203.756714,410.023865 1205.916870,405.171143 
	C1208.432739,399.519531 1213.888062,397.378632 1220.067627,398.002838 
	C1224.654419,398.466217 1227.766113,401.086884 1228.754639,405.617035 
	C1229.452759,408.816772 1229.894897,412.136993 1229.921387,415.407715 
	C1230.043213,430.397552 1229.978271,445.388885 1229.980347,460.379700 
	C1229.980591,462.137146 1229.980347,463.894562 1229.980347,465.635254 
	C1237.753540,465.635254 1244.826660,465.635254 1252.158813,465.635254 
	C1252.158813,445.156067 1252.337646,425.018738 1252.006470,404.889771 
	C1251.941040,400.908936 1250.684937,396.502747 1248.651978,393.080322 
	C1241.808472,381.559723 1226.312744,377.423950 1213.110962,383.630615 
	C1208.144775,385.965454 1203.856812,389.742859 1199.281860,392.847473 
	C1183.185791,374.700409 1166.740967,378.350891 1149.734863,393.355225 
	C1149.734863,389.285583 1149.734863,386.195892 1149.734863,383.164246 
	C1142.749756,383.164246 1136.201050,383.164246 1129.729492,383.164246 
	C1129.729492,410.949860 1129.729492,438.325958 1129.729492,465.730042 
	C1137.196777,465.730042 1144.295532,465.730042 1151.918335,465.730042 
	C1151.918335,463.697296 1151.918457,461.904938 1151.918335,460.112610 
	C1151.917236,446.454285 1151.695557,432.790955 1152.007202,419.139771 
	C1152.165771,412.192474 1152.958008,405.171814 1159.537842,400.616608 
	C1163.667480,397.757782 1168.284302,396.847107 1172.748169,398.647980 
	C1176.980835,400.355530 1179.507568,403.967194 1178.389404,409.581360 
M1054.588135,383.845795 
	C1050.144165,386.674805 1045.010498,388.813080 1041.370605,392.447418 
	C1021.154663,412.633362 1025.307373,455.404968 1056.644653,465.645782 
	C1080.880127,473.565735 1107.840332,459.869812 1112.937988,434.957062 
	C1117.031372,414.952484 1110.342407,396.737457 1094.661011,387.073364 
	C1082.295898,379.453064 1068.932251,379.400452 1054.588135,383.845795 
M970.833313,400.108124 
	C981.545227,395.467072 988.203003,397.927979 993.345154,408.250702 
	C993.810486,409.184937 995.309570,410.295074 996.219849,410.206451 
	C1002.892334,409.556976 1009.537048,408.622437 1017.772888,407.576904 
	C1013.933472,401.461182 1011.315674,395.810486 1007.378235,391.315735 
	C998.056152,380.674408 985.380554,380.017700 972.495422,381.459808 
	C962.977478,382.525055 954.787781,386.398041 948.595947,394.147552 
	C940.021790,404.878601 938.277161,417.437256 939.421021,430.352875 
	C940.203491,439.187378 942.581543,447.793610 949.036865,454.842773 
	C958.042053,464.676361 969.187378,468.377594 982.082092,467.861694 
	C1000.238037,467.135376 1014.347107,457.496277 1017.820007,437.180634 
	C1012.210510,436.603363 1006.552246,436.426697 1001.081543,435.321747 
	C997.144348,434.526520 995.684143,435.091339 994.601135,439.278717 
	C992.610840,446.973969 986.947815,450.925354 979.794128,450.877380 
	C972.536560,450.828705 965.547852,446.094086 964.090210,438.852203 
	C962.664734,431.770203 961.806885,424.386047 962.124878,417.197571 
	C962.403503,410.898499 963.510193,404.118988 970.833313,400.108124 
M921.197632,465.829529 
	C921.613281,458.551727 922.028992,451.273926 922.446594,443.961853 
	C914.354431,443.961853 907.424133,443.961853 900.223755,443.961853 
	C900.223755,451.312317 900.223755,458.372192 900.223755,465.953705 
	C907.028442,465.953705 913.637085,465.953705 921.197632,465.829529 
z"/>
<path fill="#013EB1" opacity="1.000000" stroke="none" 
	d="
M1223.047974,4.043184 
	C1222.930542,3.614425 1222.812988,3.185664 1222.983398,2.313894 
	C1223.514160,1.580593 1223.757080,1.290300 1224.000000,1.000004 
	C1242.020874,1.000000 1260.041870,1.000000 1278.650391,1.214255 
	C1279.237915,1.428510 1279.243042,1.918572 1278.905518,2.186252 
	C1278.383667,4.082638 1277.990112,5.719337 1278.052002,7.338625 
	C1278.279907,13.299701 1278.932739,19.254738 1278.938599,25.212528 
	C1279.004883,92.512466 1279.023438,159.812561 1278.936646,227.112442 
	C1278.922729,237.900467 1278.123291,248.687469 1278.109863,259.475464 
	C1278.104858,263.486908 1276.535522,264.099487 1273.073242,264.061401 
	C1259.081909,263.907440 1245.087769,264.003845 1231.094727,264.000702 
	C1224.023560,263.999115 1224.004517,263.992249 1224.003784,257.124939 
	C1223.995728,174.832367 1224.000610,92.539780 1223.950806,10.247231 
	C1223.949585,8.179033 1223.362061,6.111191 1223.047974,4.043184 
z"/>
<path fill="#060606" opacity="1.000000" stroke="none" 
	d="
M582.468262,500.000000 
	C581.588074,494.251312 581.176208,488.502655 580.733459,482.324097 
	C583.945923,482.548340 587.115723,482.968170 590.283447,482.953674 
	C600.073242,482.908905 608.140747,471.227936 604.728516,462.033325 
	C595.351257,436.765228 585.903076,411.523438 576.498962,386.265259 
	C576.163696,385.364746 575.997620,384.401276 575.569031,382.766693 
	C582.828857,382.766693 589.734253,382.561188 596.603516,382.966736 
	C597.763855,383.035217 599.220276,385.586090 599.775391,387.245758 
	C605.132751,403.262848 610.322754,419.335846 615.572327,435.389008 
	C616.078918,436.938202 616.663513,438.461884 617.667542,441.273590 
	C619.572571,435.762726 621.128113,431.451050 622.555847,427.097382 
	C627.052429,413.385559 631.450806,399.641113 636.051208,385.964478 
	C636.481262,384.685852 638.034363,382.917725 639.128967,382.871552 
	C645.904907,382.585693 652.698914,382.727783 660.197083,382.727783 
	C656.966919,391.791443 654.037231,400.203522 650.974731,408.566925 
	C643.566223,428.798920 636.138367,449.024109 628.621582,469.216034 
	C626.659241,474.487061 624.377014,479.640808 622.180725,484.822571 
	C618.281433,494.022125 611.013367,498.406189 601.162903,499.638733 
	C594.978821,500.000000 588.957703,500.000000 582.468262,500.000000 
z"/>
<path fill="#060606" opacity="1.000000" stroke="none" 
	d="
M673.468506,500.000000 
	C672.698792,497.950684 672.313232,495.909485 672.114624,493.850281 
	C671.753174,490.101837 671.502747,486.342682 671.177917,482.233551 
	C674.413086,482.485016 677.623108,482.962646 680.829712,482.941406 
	C690.812317,482.875305 698.683350,471.355774 695.202515,462.009521 
	C686.071594,437.492676 676.901428,412.990479 667.771545,388.473267 
	C667.144287,386.788757 666.720520,385.028412 666.035217,382.747955 
	C673.359253,382.747955 680.164917,382.581696 686.946350,382.912872 
	C688.066772,382.967529 689.588013,385.028870 690.067078,386.451416 
	C696.037415,404.180878 701.849243,421.963684 707.973206,440.556702 
	C709.173645,437.791412 710.343018,435.573578 711.121887,433.226105 
	C716.240112,417.799713 721.350281,402.369568 726.269287,386.879089 
	C727.224365,383.871338 728.501282,382.515350 731.836670,382.667053 
	C737.800781,382.938293 743.786072,382.743439 750.484131,382.743439 
	C749.552856,385.829712 748.894043,388.489136 747.956665,391.046448 
	C737.344910,419.995789 726.715271,448.938629 716.034546,477.862579 
	C712.139709,488.410095 706.478210,497.249817 694.091797,499.634338 
	C687.312378,500.000000 680.624695,500.000000 673.468506,500.000000 
z"/>
<path fill="#2650A6" opacity="1.000000" stroke="none" 
	d="
M994.030518,263.538818 
	C1057.864868,263.533752 1121.958984,263.744995 1186.052246,264.096344 
	C1190.705933,264.121826 1191.052734,261.773956 1191.047729,258.149017 
	C1190.984985,212.329910 1191.009399,166.510666 1191.009399,120.691467 
	C1191.009399,84.535950 1191.034180,48.380375 1190.960449,12.225003 
	C1190.953369,8.768301 1190.324341,5.312861 1189.992065,1.428417 
	C1190.000000,1.000000 1190.500000,1.000000 1190.750000,0.999993 
	C1191.400513,2.685917 1192.150269,4.371617 1192.151367,6.057810 
	C1192.207397,91.031555 1192.200439,176.005325 1192.189331,260.979095 
	C1192.189209,262.288483 1192.054443,263.597870 1191.956909,265.372467 
	C1189.616821,265.372467 1187.475098,265.372650 1185.333374,265.372406 
	C1154.509644,265.368713 1123.685913,265.363373 1092.862183,265.361664 
	C1062.397217,265.359985 1031.932129,265.397217 1001.467468,265.294403 
	C999.073303,265.286316 996.682495,264.313812 994.030518,263.538818 
z"/>
<path fill="#2551A3" opacity="1.000000" stroke="none" 
	d="
M603.666687,1.000000 
	C603.990906,73.531731 603.968445,146.063477 604.065002,218.595078 
	C604.067017,220.092514 605.448608,221.588104 606.608032,223.210754 
	C605.411804,226.066330 603.810852,225.619110 602.972839,222.964676 
	C602.290466,220.803238 602.069458,218.417679 602.067810,216.131195 
	C602.016479,144.733246 602.017395,73.335274 602.005127,1.468647 
	C602.444458,1.000000 602.888916,1.000000 603.666687,1.000000 
z"/>
<path fill="#CBEDFF" opacity="1.000000" stroke="none" 
	d="
M1279.242920,1.918578 
	C1279.243042,1.918572 1279.237915,1.428510 1279.118896,1.214253 
	C1279.666626,1.331688 1280.783813,1.544549 1280.909058,2.019058 
	C1281.196289,3.108039 1281.000000,4.324582 1281.000000,5.489334 
	C1281.000000,92.013786 1281.000000,178.538239 1281.000000,265.531342 
	C1280.801636,265.984711 1280.603149,265.969452 1280.153809,265.440186 
	C1279.930664,264.594452 1279.982666,264.262695 1279.982788,263.930969 
	C1279.987671,178.025650 1279.992676,92.120331 1279.959351,6.215039 
	C1279.958740,4.782795 1279.492065,3.350732 1279.242920,1.918578 
z"/>
<path fill="#2650A6" opacity="1.000000" stroke="none" 
	d="
M547.750000,1.000000 
	C547.997681,1.453704 547.995361,1.907409 547.876526,2.552773 
	C547.580872,2.364015 547.401794,1.983595 547.111328,1.301588 
	C547.000000,1.000000 547.500000,1.000000 547.750000,1.000000 
z"/>
<path fill="#153D93" opacity="1.000000" stroke="none" 
	d="
M1223.750000,1.000004 
	C1223.757080,1.290300 1223.514160,1.580593 1223.003784,1.979934 
	C1222.644287,1.874573 1222.552246,1.660164 1222.730225,1.222877 
	C1223.000000,1.000000 1223.500000,1.000000 1223.750000,1.000004 
z"/>
<path fill="#033FB0" opacity="1.000000" stroke="none" 
	d="
M274.000000,223.098175 
	C294.440521,223.098450 314.381012,223.098450 334.572083,223.098450 
	C334.572083,178.260544 334.572083,133.986176 334.572083,89.312439 
	C353.631317,89.312439 372.502167,89.312439 391.714783,89.312439 
	C391.714783,147.700043 391.714783,206.224548 391.714783,265.255432 
	C317.402496,265.255432 243.257980,265.255432 168.792755,265.255432 
	C168.792755,225.742264 168.792755,186.544510 168.792755,146.169922 
	C115.115578,169.185425 84.835297,209.784744 73.009178,265.206787 
	C53.460224,265.206787 34.220112,265.206787 13.977835,265.206787 
	C15.061423,256.713837 15.596592,248.519882 17.221703,240.548111 
	C21.709255,218.535004 30.149704,198.001633 42.665939,179.356186 
	C62.781345,149.390213 88.252640,125.410583 121.401299,110.096268 
	C145.416565,99.001488 170.352081,91.662491 196.816925,89.798958 
	C206.874939,89.090721 216.921661,88.222290 227.651840,87.373184 
	C227.651840,132.900330 227.651840,177.620422 227.651840,223.097900 
	C243.341400,223.097900 258.420685,223.097900 274.000000,223.098175 
z"/>
<path fill="#033FB0" opacity="1.000000" stroke="none" 
	d="
M512.241516,247.002289 
	C511.864197,264.253601 509.582825,280.602570 500.677979,295.254395 
	C488.872101,314.679535 470.734741,324.926056 449.015472,328.824524 
	C436.733582,331.029053 424.135040,331.469452 411.370972,332.735016 
	C411.370972,316.170471 411.370972,300.794861 411.370972,285.838165 
	C417.653748,284.809937 423.561554,284.191010 429.295044,282.835205 
	C442.894928,279.619171 450.335907,269.954834 453.676575,257.183838 
	C455.578400,249.913269 456.645477,242.215347 456.688965,234.701767 
	C456.957794,188.237900 456.829041,141.771744 456.832275,95.306335 
	C456.832397,93.339043 456.832275,91.371750 456.832275,89.149132 
	C474.657715,89.149132 492.734100,89.149132 512.241516,89.149132 
	C512.241516,141.767090 512.241516,194.141434 512.241516,247.002289 
z"/>
<path fill="#050505" opacity="1.000000" stroke="none" 
	d="
M56.530045,397.326660 
	C62.223660,381.871094 67.755608,366.773376 73.446495,351.241852 
	C81.545883,351.241852 89.520088,351.096893 97.476471,351.407990 
	C98.589317,351.451508 100.041267,353.563873 100.616737,355.005737 
	C109.887955,378.235535 119.040161,401.512787 128.224472,424.777283 
	C133.022629,436.931335 137.833191,449.080444 142.630936,461.234680 
	C143.213074,462.709381 143.750153,464.201904 144.433807,466.020477 
	C136.796722,466.020477 129.636246,466.158508 122.490616,465.894714 
	C121.186874,465.846588 119.307411,464.429535 118.779312,463.184082 
	C116.067474,456.788422 113.616234,450.276001 111.277145,443.731720 
	C110.385864,441.238068 109.270401,439.914551 106.336922,439.944275 
	C92.687302,440.082550 79.035500,440.005554 65.004417,440.005554 
	C62.260281,447.638550 59.635410,455.269592 56.705566,462.781677 
	C56.185417,464.115387 54.431866,465.827942 53.188118,465.877899 
	C45.895504,466.170685 38.585167,466.021698 30.636423,466.021698 
	C34.013683,457.031769 37.201881,448.526642 40.403603,440.026581 
	C45.720627,425.910828 51.046329,411.798370 56.530045,397.326660 
M94.713280,400.631256 
	C92.268730,394.043884 89.824188,387.456482 87.379639,380.869110 
	C86.928688,380.906952 86.477745,380.944824 86.026794,380.982666 
	C81.435120,393.855713 76.843452,406.728760 72.181824,419.797913 
	C82.652748,419.797913 92.127785,419.797913 102.154236,419.797913 
	C99.657379,413.261078 97.377243,407.291656 94.713280,400.631256 
z"/>
<path fill="#060606" opacity="1.000000" stroke="none" 
	d="
M309.564697,465.510468 
	C297.527832,460.841827 292.186188,451.057861 289.128845,439.979340 
	C285.630463,427.302765 286.126678,414.610199 290.980316,402.127106 
	C298.502380,382.781097 321.438049,375.530151 336.947906,384.812927 
	C340.526642,386.954834 343.414764,390.250641 346.842407,393.206604 
	C346.842407,390.100250 346.842407,386.751923 346.842407,382.739960 
	C350.810242,382.739960 354.244110,382.739960 357.678009,382.739960 
	C360.975616,382.739960 364.273224,382.739960 367.767883,382.739960 
	C367.767883,421.227570 367.767883,459.291901 367.767883,497.755737 
	C360.444061,497.755737 353.103760,497.755737 345.403931,497.755737 
	C345.403931,484.176483 345.403931,470.756744 345.403931,456.052826 
	C334.963684,466.972687 323.522217,470.903320 309.564697,465.510468 
M320.371582,449.406952 
	C328.974945,452.350891 335.661743,450.434265 340.479584,442.722229 
	C347.649017,431.245941 346.968658,418.902954 342.142548,406.967102 
	C339.834015,401.257629 334.482697,397.865936 327.807220,397.981689 
	C320.875641,398.101868 315.818909,401.385376 312.796844,407.616455 
	C308.936493,415.576019 309.401794,423.989380 310.143494,432.495575 
	C310.764038,439.611816 313.693359,445.166748 320.371582,449.406952 
z"/>
<path fill="#060606" opacity="1.000000" stroke="none" 
	d="
M763.807373,401.615967 
	C769.183472,386.829254 780.318481,381.226593 794.821289,381.019012 
	C799.946533,380.945648 805.137878,381.178467 810.202087,381.927368 
	C827.861816,384.538910 831.882080,392.613892 832.563782,407.613556 
	C833.009644,417.424469 832.713196,427.273804 832.597839,437.104156 
	C832.482422,446.939514 832.649475,456.696503 837.877319,466.021118 
	C831.293274,466.021118 825.318298,465.801605 819.370178,466.106079 
	C815.976135,466.279846 814.521790,464.911896 813.957336,461.854553 
	C813.699463,460.457397 813.210205,459.102966 813.088379,458.667389 
	C806.134949,461.716034 799.690063,465.997009 792.686340,467.320496 
	C776.259338,470.424652 759.165222,461.830719 759.934814,441.719116 
	C760.284241,432.588043 766.121582,424.079102 775.424866,421.247040 
	C784.879944,418.368774 794.625793,416.456085 804.203003,413.961609 
	C806.504761,413.362122 809.875610,414.057861 810.051880,409.993286 
	C810.227356,405.947205 809.473755,402.268951 805.906128,399.940552 
	C798.076660,394.830597 787.169495,398.053345 783.044617,406.348511 
	C782.502625,407.438446 780.601379,408.654541 779.484253,408.520935 
	C773.955872,407.859558 768.479492,406.764313 762.646606,405.764038 
	C763.024841,404.369110 763.351746,403.163361 763.807373,401.615967 
M802.460388,450.055145 
	C811.737000,444.869171 809.982483,436.191711 809.895142,427.469818 
	C802.405518,429.528687 795.313965,431.136932 788.463562,433.457336 
	C781.623718,435.774200 780.133118,443.302490 785.055786,448.637177 
	C789.418030,453.364624 793.797729,453.844727 802.460388,450.055145 
z"/>
<path fill="#060606" opacity="1.000000" stroke="none" 
	d="
M453.908783,466.021606 
	C452.427612,466.021606 451.428497,466.021637 450.429413,466.021637 
	C440.984192,466.021637 440.984192,466.021606 437.643585,457.331573 
	C429.726562,464.134369 420.887024,468.531219 410.203278,467.879852 
	C400.398895,467.282104 391.856293,463.782196 387.464691,454.580017 
	C383.313049,445.880493 383.453156,436.606476 389.862610,428.906586 
	C392.767365,425.416962 397.219940,422.481537 401.549591,421.064606 
	C410.624115,418.094910 420.102936,416.376495 429.368469,413.962860 
	C431.647278,413.369263 435.008820,414.006317 435.095398,409.912476 
	C435.188904,405.488312 434.395050,401.548767 430.037384,399.420532 
	C421.097198,395.054108 412.645264,398.024139 408.027405,406.859558 
	C407.557495,407.758698 405.996979,408.769409 405.088715,408.646667 
	C399.409424,407.879089 393.771729,406.804016 388.124207,405.831482 
	C389.944061,393.941071 398.681610,383.558563 410.313080,382.319641 
	C419.411987,381.350494 428.893433,381.044617 437.869843,382.504425 
	C453.344971,385.021057 457.040283,393.201965 457.665253,407.677490 
	C458.045593,416.486023 457.653320,425.325653 457.742065,434.149963 
	C457.797089,439.619415 457.708710,445.137573 458.409760,450.539795 
	C459.082642,455.725067 460.690613,460.789062 461.914581,466.021576 
	C459.689880,466.021576 457.040375,466.021576 453.908783,466.021606 
M423.021576,430.407837 
	C420.340973,431.240204 417.532806,431.801514 415.017609,432.985291 
	C412.751038,434.052032 410.025543,435.342804 408.858093,437.330841 
	C404.599762,444.582367 410.535553,452.961517 419.371063,452.614624 
	C431.220459,452.149353 437.522430,441.825562 434.430176,427.874786 
	C430.890259,428.631134 427.349365,429.387726 423.021576,430.407837 
z"/>
<path fill="#050505" opacity="1.000000" stroke="none" 
	d="
M268.253021,421.000183 
	C268.547546,431.944031 268.525696,442.410980 269.287384,452.820618 
	C269.602295,457.124207 271.596985,461.304901 272.968445,466.025909 
	C266.445740,466.025909 259.877869,466.136627 253.321426,465.912872 
	C252.273590,465.877106 250.892883,464.537201 250.344986,463.456116 
	C249.486862,461.762970 249.207535,459.776459 248.905991,458.705811 
	C242.006195,461.700928 235.550171,465.881012 228.540863,467.271057 
	C211.840942,470.582825 194.896164,461.454163 195.684601,441.834625 
	C196.059219,432.512543 201.965240,424.008392 211.573517,421.126251 
	C220.882263,418.333984 230.464050,416.462219 239.880417,414.011353 
	C242.316467,413.377319 245.883240,414.063629 245.963196,409.716064 
	C246.041962,405.433258 244.943100,401.638000 241.077820,399.543030 
	C232.567703,394.930603 223.344620,398.056213 218.848801,406.582855 
	C218.327316,407.571869 216.593353,408.651917 215.567444,408.523499 
	C209.881729,407.811951 204.241180,406.739532 198.564590,405.787201 
	C203.379486,387.364166 213.790329,382.057983 229.523712,381.046387 
	C234.939514,380.698151 240.473175,381.230408 245.882599,381.915833 
	C261.427155,383.885345 267.963654,391.331726 268.265869,407.016998 
	C268.352448,411.509674 268.261871,416.005707 268.253021,421.000183 
M237.735168,450.374847 
	C247.280685,445.251709 246.209427,436.494598 245.717468,427.239441 
	C237.906357,429.565247 230.424637,431.542969 223.129211,434.060516 
	C218.861115,435.533417 217.189270,439.889160 218.434067,444.227264 
	C220.697388,452.114899 227.650192,454.536224 237.735168,450.374847 
z"/>
<path fill="#0640AF" opacity="1.000000" stroke="none" 
	d="
M388.557251,307.000793 
	C388.557007,316.455811 388.557007,325.410919 388.557007,334.847595 
	C368.984192,334.847595 349.781036,334.847595 330.328156,334.847595 
	C330.328156,319.769348 330.328156,304.203217 330.328156,288.217499 
	C349.599884,288.217499 368.767883,288.217499 388.557526,288.217499 
	C388.557526,294.288818 388.557526,300.394867 388.557251,307.000793 
z"/>
<path fill="#0842B0" opacity="1.000000" stroke="none" 
	d="
M195.999878,56.660122 
	C185.026978,56.660042 174.554077,56.660042 163.622635,56.660042 
	C163.622635,41.316631 163.622635,25.973776 163.622635,10.297652 
	C182.675995,10.297652 202.011414,10.297652 221.561676,10.297652 
	C221.561676,25.716743 221.561676,40.925556 221.561676,56.660202 
	C213.032211,56.660202 204.766052,56.660202 195.999878,56.660122 
z"/>
<path fill="#0540AF" opacity="1.000000" stroke="none" 
	d="
M139.076813,12.203231 
	C139.073044,27.146368 139.073044,41.607407 139.073044,56.422997 
	C119.751854,56.422997 100.703888,56.422997 81.070618,56.422997 
	C81.070618,41.288273 81.070618,25.908522 81.070618,9.979986 
	C84.906288,9.979986 89.336502,9.980303 93.766708,9.979928 
	C107.408897,9.978772 121.051575,9.924478 134.692551,10.052568 
	C136.160324,10.066352 137.618149,11.139435 139.076813,12.203231 
z"/>
<path fill="#070707" opacity="1.000000" stroke="none" 
	d="
M179.632629,454.964417 
	C179.633102,458.759399 179.633102,462.060486 179.633102,466.021851 
	C175.717667,466.021851 172.126907,466.021820 168.536148,466.021820 
	C164.899384,466.021820 161.262619,466.021851 157.319763,466.021851 
	C157.319763,427.736267 157.319763,389.747406 157.319763,351.490753 
	C164.682983,351.490753 171.890289,351.490753 179.632141,351.490753 
	C179.632141,386.008087 179.632141,420.239319 179.632629,454.964417 
z"/>
<path fill="#060606" opacity="1.000000" stroke="none" 
	d="
M501.619934,439.002136 
	C501.619965,448.132233 501.619965,456.762695 501.619965,465.709290 
	C494.049652,465.709290 486.830688,465.709290 479.315002,465.709290 
	C479.315002,438.163208 479.315002,410.639374 479.315002,382.919586 
	C486.116425,382.919586 492.708588,382.919586 499.698761,382.919586 
	C499.698761,386.194214 499.698761,389.290009 499.698761,391.675995 
	C504.533234,388.204041 508.985046,383.569824 514.415100,381.492554 
	C520.403015,379.201843 526.785828,381.723297 532.907959,384.864349 
	C531.028625,391.121246 529.194397,397.227997 527.260864,403.665222 
	C525.107544,402.824219 523.187988,401.929657 521.182495,401.315765 
	C511.170898,398.251038 503.531464,404.596802 502.510986,417.127350 
	C501.932587,424.229492 501.898926,431.375977 501.619934,439.002136 
z"/>
<path fill="#010101" opacity="1.000000" stroke="none" 
	d="
M564.244751,417.000153 
	C564.244202,433.459686 564.244202,449.419189 564.244202,465.704590 
	C556.833801,465.704590 549.619324,465.704590 542.174194,465.704590 
	C542.174194,438.208160 542.174194,410.829590 542.174194,383.086426 
	C549.388000,383.086426 556.569092,383.086426 564.245361,383.086426 
	C564.245361,394.308472 564.245361,405.404297 564.244751,417.000153 
z"/>
<path fill="#0D409E" opacity="1.000000" stroke="none" 
	d="
M1278.553467,348.873474 
	C1279.000000,349.029572 1278.999390,349.527344 1278.524658,349.768616 
	C1147.929443,350.008209 1017.809143,350.002350 887.688843,350.046661 
	C885.796082,350.047302 883.903564,350.674683 882.010925,351.009583 
	C882.008057,396.156006 882.004395,441.302460 882.003296,486.448883 
	C882.003174,492.998596 882.008850,493.004028 888.409973,493.004059 
	C1016.519226,493.004395 1144.628540,493.000946 1272.737793,493.026337 
	C1274.688477,493.026733 1276.639038,493.381622 1278.776855,493.879547 
	C1277.334595,494.386139 1275.705078,494.757355 1274.075562,494.757721 
	C1145.172241,494.786652 1016.268982,494.786865 887.365723,494.783569 
	C886.034607,494.783539 884.703430,494.708252 882.690125,494.394257 
	C881.769470,494.098816 881.531067,494.077209 881.292664,494.055603 
	C881.182800,493.070801 880.977051,492.086029 880.976868,491.101196 
	C880.967712,444.778076 880.976562,398.454956 880.983215,352.131836 
	C880.983337,351.166473 880.983154,350.201111 880.983154,348.717346 
	C1013.630310,348.717346 1145.868652,348.717346 1278.553467,348.873474 
z"/>
<path fill="#2650A6" opacity="1.000000" stroke="none" 
	d="
M547.242310,263.349731 
	C549.623962,263.306305 551.897095,263.973145 554.170471,263.973969 
	C690.263855,264.023834 826.357361,264.044830 962.450500,263.863647 
	C965.721313,263.859283 969.031494,261.639404 972.243042,260.265259 
	C974.334778,259.370270 976.281067,258.135071 978.657776,257.031586 
	C974.055054,262.484985 968.505737,265.622284 960.481262,265.527954 
	C925.687378,265.118805 890.885864,265.356995 856.087158,265.356873 
	C774.620850,265.356598 693.154541,265.351410 611.688232,265.355499 
	C591.048157,265.356537 570.408020,265.405304 549.768250,265.330872 
	C548.888245,265.327667 548.011902,264.299744 547.242310,263.349731 
z"/>
<path fill="#153D93" opacity="1.000000" stroke="none" 
	d="
M1278.905518,2.186258 
	C1279.492065,3.350732 1279.958740,4.782795 1279.959351,6.215039 
	C1279.992676,92.120331 1279.987671,178.025650 1279.982788,263.930969 
	C1279.982666,264.262695 1279.930664,264.594452 1279.861328,265.380463 
	C1277.016479,265.636230 1274.213867,265.275696 1271.409790,265.265991 
	C1255.430908,265.210785 1239.451660,265.239197 1222.833130,265.239197 
	C1222.833130,178.621429 1222.833130,91.785736 1222.940552,4.496616 
	C1223.362061,6.111191 1223.949585,8.179033 1223.950806,10.247231 
	C1224.000610,92.539780 1223.995728,174.832367 1224.003784,257.124939 
	C1224.004517,263.992249 1224.023560,263.999115 1231.094727,264.000702 
	C1245.087769,264.003845 1259.081909,263.907440 1273.073242,264.061401 
	C1276.535522,264.099487 1278.104858,263.486908 1278.109863,259.475464 
	C1278.123291,248.687469 1278.922729,237.900467 1278.936646,227.112442 
	C1279.023438,159.812561 1279.004883,92.512466 1278.938599,25.212528 
	C1278.932739,19.254738 1278.279907,13.299701 1278.052002,7.338625 
	C1277.990112,5.719337 1278.383667,4.082638 1278.905518,2.186258 
z"/>
<path fill="#060606" opacity="1.000000" stroke="none" 
	d="
M541.949097,365.894226 
	C541.949097,360.940826 541.949097,356.476135 541.949097,351.614075 
	C549.335022,351.614075 556.494995,351.614075 563.962708,351.614075 
	C563.962708,357.921997 563.962708,364.146240 563.962708,370.700897 
	C556.876526,370.700897 549.684692,370.700897 542.138916,370.700897 
	C542.075073,369.249390 542.012024,367.816162 541.949097,365.894226 
z"/>
<path fill="#15408E" opacity="1.000000" stroke="none" 
	d="
M247.813309,325.932373 
	C247.813400,313.135223 247.813400,300.826294 247.813400,288.161163 
	C267.154022,288.161163 286.227631,288.161163 305.674072,288.161163 
	C305.674072,303.547668 305.674072,319.087463 305.674072,334.999603 
	C286.478180,334.999603 267.410004,334.999603 247.813217,334.999603 
	C247.813217,332.333282 247.813217,329.376953 247.813309,325.932373 
M258.542480,334.001801 
	C272.342010,334.000641 286.142212,333.922791 299.940552,334.051208 
	C303.482452,334.084167 305.082886,333.046570 305.032898,329.242432 
	C304.877838,317.440094 304.879364,305.633118 305.034363,293.830780 
	C305.083557,290.084839 303.608459,288.926270 300.007233,288.955719 
	C284.712463,289.080811 269.415039,289.097992 254.120850,288.938721 
	C250.181610,288.897705 248.876587,290.324615 248.944992,294.195526 
	C249.130066,304.666565 248.947083,315.143463 249.023392,325.617249 
	C249.093124,335.188477 247.660965,333.864197 258.542480,334.001801 
z"/>
<path fill="#2650A6" opacity="1.000000" stroke="none" 
	d="
M981.418945,255.034973 
	C982.388062,254.646927 984.397339,253.474625 984.979187,253.972046 
	C988.082458,256.625092 990.828613,259.695709 993.737915,262.970551 
	C990.842163,261.067688 987.939270,258.771820 984.952515,256.590759 
	C984.018005,255.908417 982.857422,255.535706 981.418945,255.034973 
z"/>
<path fill="#2650A6" opacity="1.000000" stroke="none" 
	d="
M979.307495,256.961365 
	C979.469116,256.368805 979.928345,255.715286 980.718140,255.050644 
	C980.567505,255.659836 980.086304,256.280151 979.307495,256.961365 
z"/>
<path fill="#0440B1" opacity="1.000000" stroke="none" 
	d="
M881.343689,494.304138 
	C881.531067,494.077209 881.769470,494.098816 882.363159,494.188812 
	C882.277161,494.355682 881.835938,494.454163 881.343689,494.304138 
z"/>
<path fill="#FAFCFE" opacity="1.000000" stroke="none" 
	d="
M775.023254,187.000000 
	C775.023254,198.811279 775.023254,210.122559 775.023254,222.575150 
	C769.453979,219.810745 764.414551,217.557083 759.610962,214.880264 
	C742.710510,205.462570 729.085510,192.795975 720.521057,175.119370 
	C712.717041,159.012344 718.748901,144.872864 736.042542,140.008026 
	C742.186035,138.279831 748.607666,137.238617 754.972107,136.681702 
	C761.357849,136.122955 767.830688,136.558914 775.023254,136.558914 
	C775.023254,153.699783 775.023254,170.099899 775.023254,187.000000 
z"/>
<path fill="#F7FAFD" opacity="1.000000" stroke="none" 
	d="
M1007.747986,170.568619 
	C1004.116943,177.466446 1000.650513,183.999374 997.184143,190.532303 
	C996.693787,190.533737 996.203430,190.535156 995.713074,190.536591 
	C987.089111,167.858124 974.796509,147.626801 956.272156,131.552292 
	C956.504883,131.145508 956.737549,130.738739 956.970276,130.331970 
	C964.979675,130.331970 973.005493,130.024918 980.992249,130.450684 
	C985.558655,130.694122 990.176331,131.755981 994.569702,133.104950 
	C1004.716187,136.220413 1010.068665,143.353073 1009.949341,154.045944 
	C1009.889160,159.438766 1008.629822,164.818222 1007.747986,170.568619 
z"/>
<path fill="#2551A3" opacity="1.000000" stroke="none" 
	d="
M680.911682,215.765854 
	C678.619141,213.992767 676.333252,211.856979 673.910522,209.414078 
	C676.155212,211.205688 678.536804,213.304428 680.911682,215.765854 
z"/>
<path fill="#2551A3" opacity="1.000000" stroke="none" 
	d="
M687.760742,222.962585 
	C685.703308,221.260712 683.923523,219.488815 682.003540,217.413574 
	C684.948730,217.940918 688.309875,218.477081 687.760742,222.962585 
z"/>
<path fill="#2551A3" opacity="1.000000" stroke="none" 
	d="
M681.233643,223.485260 
	C682.408264,223.184235 683.805786,223.116394 685.605286,223.171432 
	C684.490356,223.435699 682.973450,223.577072 681.233643,223.485260 
z"/>
<path fill="#2551A3" opacity="1.000000" stroke="none" 
	d="
M681.836670,216.887070 
	C681.604309,216.971237 681.290161,216.798660 680.921997,216.348236 
	C681.163635,216.257034 681.459229,216.443680 681.836670,216.887070 
z"/>
<path fill="#2551A3" opacity="1.000000" stroke="none" 
	d="
M675.095459,223.428635 
	C675.167480,223.226059 675.333130,223.167572 675.749634,223.190521 
	C675.729919,223.372208 675.459534,223.472458 675.095459,223.428635 
z"/>
<path fill="#2551A3" opacity="1.000000" stroke="none" 
	d="
M609.108765,223.442017 
	C609.180969,223.231720 609.342468,223.166199 609.749878,223.189117 
	C609.729980,223.380630 609.463989,223.483704 609.108765,223.442017 
z"/>
<path fill="#0640AF" opacity="1.000000" stroke="none" 
	d="
M733.997437,9.977049 
	C739.466980,9.976995 744.437378,9.976995 749.720947,9.976995 
	C749.720947,25.538418 749.720947,40.791504 749.720947,56.400475 
	C730.700256,56.400475 711.631775,56.400475 692.036560,56.400475 
	C692.036560,41.200912 692.036560,25.824753 692.036560,9.977102 
	C705.584717,9.977102 719.541443,9.977102 733.997437,9.977049 
z"/>
<path fill="#0540AF" opacity="1.000000" stroke="none" 
	d="
M823.825928,9.976103 
	C825.235352,10.768134 826.958801,11.549580 826.967651,12.350063 
	C827.129822,26.951977 827.086060,41.556190 827.086060,56.464462 
	C807.581543,56.464462 788.532410,56.464462 768.992371,56.464462 
	C768.992371,41.118076 768.992371,25.746170 768.992371,9.974379 
	C786.780334,9.974379 805.061157,9.974379 823.825928,9.976103 
z"/>
<path fill="#F8FBFD" opacity="1.000000" stroke="none" 
	d="
M1178.976929,408.984009 
	C1179.507568,403.967194 1176.980835,400.355530 1172.748169,398.647980 
	C1168.284302,396.847107 1163.667480,397.757782 1159.537842,400.616608 
	C1152.958008,405.171814 1152.165771,412.192474 1152.007202,419.139771 
	C1151.695557,432.790955 1151.917236,446.454285 1151.918335,460.112610 
	C1151.918457,461.904938 1151.918335,463.697296 1151.918335,465.730042 
	C1144.295532,465.730042 1137.196777,465.730042 1129.729492,465.730042 
	C1129.729492,438.325958 1129.729492,410.949860 1129.729492,383.164246 
	C1136.201050,383.164246 1142.749756,383.164246 1149.734863,383.164246 
	C1149.734863,386.195892 1149.734863,389.285583 1149.734863,393.355225 
	C1166.740967,378.350891 1183.185791,374.700409 1199.281860,392.847473 
	C1203.856812,389.742859 1208.144775,385.965454 1213.110962,383.630615 
	C1226.312744,377.423950 1241.808472,381.559723 1248.651978,393.080322 
	C1250.684937,396.502747 1251.941040,400.908936 1252.006470,404.889771 
	C1252.337646,425.018738 1252.158813,445.156067 1252.158813,465.635254 
	C1244.826660,465.635254 1237.753540,465.635254 1229.980347,465.635254 
	C1229.980347,463.894562 1229.980591,462.137146 1229.980347,460.379700 
	C1229.978271,445.388885 1230.043213,430.397552 1229.921387,415.407715 
	C1229.894897,412.136993 1229.452759,408.816772 1228.754639,405.617035 
	C1227.766113,401.086884 1224.654419,398.466217 1220.067627,398.002838 
	C1213.888062,397.378632 1208.432739,399.519531 1205.916870,405.171143 
	C1203.756714,410.023865 1202.361694,415.584381 1202.186279,420.883453 
	C1201.696899,435.670074 1202.016113,450.483490 1202.016113,465.570374 
	C1194.481201,465.570374 1187.244751,465.570374 1179.817383,464.806519 
	C1179.645386,446.772827 1179.676880,429.502930 1179.652588,412.233154 
	C1179.651001,411.149811 1179.212158,410.067047 1178.976929,408.984009 
z"/>
<path fill="#F7FBFD" opacity="1.000000" stroke="none" 
	d="
M1054.975098,383.757690 
	C1068.932251,379.400452 1082.295898,379.453064 1094.661011,387.073364 
	C1110.342407,396.737457 1117.031372,414.952484 1112.937988,434.957062 
	C1107.840332,459.869812 1080.880127,473.565735 1056.644653,465.645782 
	C1025.307373,455.404968 1021.154663,412.633362 1041.370605,392.447418 
	C1045.010498,388.813080 1050.144165,386.674805 1054.975098,383.757690 
M1051.313232,426.273010 
	C1051.936646,429.854034 1052.114502,433.586456 1053.269897,436.986755 
	C1056.310547,445.936096 1063.076172,450.967957 1071.194580,450.912292 
	C1079.422485,450.855896 1086.055176,445.860016 1089.011719,436.796112 
	C1092.319458,426.654907 1092.289062,416.490997 1086.757324,407.048706 
	C1079.590088,394.814545 1063.870117,394.581573 1055.940674,406.370270 
	C1052.061279,412.137787 1051.046021,418.592651 1051.313232,426.273010 
z"/>
<path fill="#F6F9FD" opacity="1.000000" stroke="none" 
	d="
M970.495361,400.289673 
	C963.510193,404.118988 962.403503,410.898499 962.124878,417.197571 
	C961.806885,424.386047 962.664734,431.770203 964.090210,438.852203 
	C965.547852,446.094086 972.536560,450.828705 979.794128,450.877380 
	C986.947815,450.925354 992.610840,446.973969 994.601135,439.278717 
	C995.684143,435.091339 997.144348,434.526520 1001.081543,435.321747 
	C1006.552246,436.426697 1012.210510,436.603363 1017.820007,437.180634 
	C1014.347107,457.496277 1000.238037,467.135376 982.082092,467.861694 
	C969.187378,468.377594 958.042053,464.676361 949.036865,454.842773 
	C942.581543,447.793610 940.203491,439.187378 939.421021,430.352875 
	C938.277161,417.437256 940.021790,404.878601 948.595947,394.147552 
	C954.787781,386.398041 962.977478,382.525055 972.495422,381.459808 
	C985.380554,380.017700 998.056152,380.674408 1007.378235,391.315735 
	C1011.315674,395.810486 1013.933472,401.461182 1017.772888,407.576904 
	C1009.537048,408.622437 1002.892334,409.556976 996.219849,410.206451 
	C995.309570,410.295074 993.810486,409.184937 993.345154,408.250702 
	C988.203003,397.927979 981.545227,395.467072 970.495361,400.289673 
z"/>
<path fill="#F8FDFE" opacity="1.000000" stroke="none" 
	d="
M920.721680,465.891602 
	C913.637085,465.953705 907.028442,465.953705 900.223755,465.953705 
	C900.223755,458.372192 900.223755,451.312317 900.223755,443.961853 
	C907.424133,443.961853 914.354431,443.961853 922.446594,443.961853 
	C922.028992,451.273926 921.613281,458.551727 920.721680,465.891602 
z"/>
<path fill="#0036A4" opacity="1.000000" stroke="none" 
	d="
M882.478516,351.004639 
	C883.903564,350.674683 885.796082,350.047302 887.688843,350.046661 
	C1017.809143,350.002350 1147.929443,350.008209 1278.516357,350.017395 
	C1276.918091,350.349274 1274.853516,350.956818 1272.788574,350.957550 
	C1142.841064,351.003052 1012.893555,350.999115 882.478516,351.004639 
z"/>
<path fill="#033493" opacity="1.000000" stroke="none" 
	d="
M1178.683105,409.282684 
	C1179.212158,410.067047 1179.651001,411.149811 1179.652588,412.233154 
	C1179.676880,429.502930 1179.645386,446.772827 1179.479248,464.482117 
	C1178.893066,464.301666 1178.069824,463.680542 1178.071655,463.061981 
	C1178.126953,445.234955 1178.264893,427.408173 1178.683105,409.282684 
z"/>
<path fill="#F6F6F6" opacity="1.000000" stroke="none" 
	d="
M94.905197,400.976746 
	C97.377243,407.291656 99.657379,413.261078 102.154236,419.797913 
	C92.127785,419.797913 82.652748,419.797913 72.181824,419.797913 
	C76.843452,406.728760 81.435120,393.855713 86.026794,380.982666 
	C86.477745,380.944824 86.928688,380.906952 87.379639,380.869110 
	C89.824188,387.456482 92.268730,394.043884 94.905197,400.976746 
z"/>
<path fill="#FAFAFA" opacity="1.000000" stroke="none" 
	d="
M320.026855,449.243561 
	C313.693359,445.166748 310.764038,439.611816 310.143494,432.495575 
	C309.401794,423.989380 308.936493,415.576019 312.796844,407.616455 
	C315.818909,401.385376 320.875641,398.101868 327.807220,397.981689 
	C334.482697,397.865936 339.834015,401.257629 342.142548,406.967102 
	C346.968658,418.902954 347.649017,431.245941 340.479584,442.722229 
	C335.661743,450.434265 328.974945,452.350891 320.026855,449.243561 
z"/>
<path fill="#F6F6F6" opacity="1.000000" stroke="none" 
	d="
M802.149536,450.266113 
	C793.797729,453.844727 789.418030,453.364624 785.055786,448.637177 
	C780.133118,443.302490 781.623718,435.774200 788.463562,433.457336 
	C795.313965,431.136932 802.405518,429.528687 809.895142,427.469818 
	C809.982483,436.191711 811.737000,444.869171 802.149536,450.266113 
z"/>
<path fill="#F5F5F5" opacity="1.000000" stroke="none" 
	d="
M423.415039,430.276062 
	C427.349365,429.387726 430.890259,428.631134 434.430176,427.874786 
	C437.522430,441.825562 431.220459,452.149353 419.371063,452.614624 
	C410.535553,452.961517 404.599762,444.582367 408.858093,437.330841 
	C410.025543,435.342804 412.751038,434.052032 415.017609,432.985291 
	C417.532806,431.801514 420.340973,431.240204 423.415039,430.276062 
z"/>
<path fill="#F5F5F5" opacity="1.000000" stroke="none" 
	d="
M237.394913,450.543396 
	C227.650192,454.536224 220.697388,452.114899 218.434067,444.227264 
	C217.189270,439.889160 218.861115,435.533417 223.129211,434.060516 
	C230.424637,431.542969 237.906357,429.565247 245.717468,427.239441 
	C246.209427,436.494598 247.280685,445.251709 237.394913,450.543396 
z"/>
<path fill="#013EB0" opacity="1.000000" stroke="none" 
	d="
M258.050201,334.003357 
	C247.660965,333.864197 249.093124,335.188477 249.023392,325.617249 
	C248.947083,315.143463 249.130066,304.666565 248.944992,294.195526 
	C248.876587,290.324615 250.181610,288.897705 254.120850,288.938721 
	C269.415039,289.097992 284.712463,289.080811 300.007233,288.955719 
	C303.608459,288.926270 305.083557,290.084839 305.034363,293.830780 
	C304.879364,305.633118 304.877838,317.440094 305.032898,329.242432 
	C305.082886,333.046570 303.482452,334.084167 299.940552,334.051208 
	C286.142212,333.922791 272.342010,334.000641 258.050201,334.003357 
z"/>
<path fill="#0741AF" opacity="1.000000" stroke="none" 
	d="
M1051.312256,425.818909 
	C1051.046021,418.592651 1052.061279,412.137787 1055.940674,406.370270 
	C1063.870117,394.581573 1079.590088,394.814545 1086.757324,407.048706 
	C1092.289062,416.490997 1092.319458,426.654907 1089.011719,436.796112 
	C1086.055176,445.860016 1079.422485,450.855896 1071.194580,450.912292 
	C1063.076172,450.967957 1056.310547,445.936096 1053.269897,436.986755 
	C1052.114502,433.586456 1051.936646,429.854034 1051.312256,425.818909 
z"/>
</svg>